<svg aria-hidden="true" style="position: absolute; width: 0; height: 0; overflow: hidden;" version="1.1" xmlns="http://www.w3.org/2000/svg" xmlns:xlink="http://www.w3.org/1999/xlink">
  <defs>
    <symbol id="icon-logo" viewBox="0 0 110 32">
      <path d="M16.404 0.144c0.434-0.050 0.936 0.048 1.354 0.174 0.946 0.288 1.714 0.905 2.17 1.786 0.474 0.901 0.565 1.957 0.252 2.927-0.396 1.196-1.247 1.797-2.309 2.351l0.011 3.489c0.76 0.231 1.499 0.495 2.189 0.894 1.584 0.919 2.669 2.467 3.123 4.23 0.147 0.544 0.231 1.168 0.231 1.812 0 1.345-0.368 2.603-1.010 3.681l0.018-0.033c-0.888 1.494-2.301 2.597-3.994 3.020-2.21 0.552-4.086-0.046-5.986-1.177-0.84 0.898-1.67 1.808-2.49 2.725 0.367 0.864 0.487 1.77 0.245 2.688-0.237 0.898-0.867 1.666-1.67 2.12-0.902 0.511-1.928 0.604-2.917 0.321-0.981-0.281-1.805-0.888-2.285-1.801-0.471-0.898-0.511-1.949-0.205-2.907 0.348-1.089 1.057-1.76 2.054-2.258 1.072-0.419 1.958-0.281 3.004 0.096 0.872-0.918 1.693-1.881 2.575-2.789-0.968-1.899-1.281-3.515-0.778-5.607-1.096-0.511-2.154-1.108-3.25-1.621-0.585 0.61-1.301 1.028-2.142 1.17-1.002 0.169-2.061-0.104-2.885-0.693-0.797-0.582-1.347-1.463-1.484-2.474l-0.002-0.019c-0.134-0.97 0.121-2.039 0.742-2.804 0.64-0.79 1.633-1.266 2.637-1.37 0.108-0.011 0.234-0.018 0.361-0.018 0.905 0 1.734 0.322 2.38 0.859l-0.006-0.005c0.976 0.817 1.257 1.833 1.376 3.046 1.039 0.637 2.229 1.128 3.312 1.697 1.408-1.666 2.438-2.191 4.492-2.825l0.002-3.463c-0.403-0.155-0.751-0.344-1.070-0.572l0.015 0.010c-0.79-0.589-1.334-1.471-1.471-2.482l-0.002-0.019c-0.018-0.137-0.028-0.295-0.028-0.456 0-0.882 0.304-1.693 0.813-2.334l-0.006 0.008c0.678-0.851 1.585-1.239 2.637-1.377zM20.933 17.37c-0.176-2.257-2.051-4.022-4.338-4.022-2.403 0-4.35 1.948-4.35 4.35 0 0.153 0.008 0.304 0.023 0.452l-0.002-0.019c0.228 2.209 2.079 3.917 4.329 3.917 2.403 0 4.35-1.948 4.35-4.35 0-0.116-0.005-0.23-0.013-0.343l0.001 0.015zM102.118 11.96c0.708 0 1.415 0.010 2.124 0.029l-0.004 3.742c0.546-0.423 1.14-0.739 1.831-0.842 0.158-0.025 0.34-0.040 0.525-0.040 0.797 0 1.532 0.266 2.121 0.715l-0.009-0.006c0.908 0.688 1.384 1.844 1.523 2.949 0.175 1.402-0.154 2.749-1.019 3.866-0.574 0.554-1.264 0.942-2.058 1.072-1.166 0.191-2.088-0.217-2.998-0.894l-0.004 0.818-2.032-0.003-0.001-11.406zM105.758 16.864c-0.632 0.211-1.071 0.511-1.378 1.119-0.342 0.674-0.365 1.507-0.099 2.211 0.204 0.538 0.585 1.003 1.118 1.244 0.385 0.174 0.749 0.18 1.165 0.155 0.66-0.249 1.104-0.569 1.402-1.229 0.147-0.33 0.233-0.715 0.233-1.12 0-0.395-0.082-0.771-0.229-1.112l0.007 0.018c-0.228-0.534-0.632-0.963-1.177-1.175-0.341-0.131-0.682-0.149-1.042-0.11zM41.276 11.938c1.246 3.84 2.841 7.575 4.057 11.427l-2.297 0.003c-0.269-0.823-0.53-1.753-0.939-2.513-0.268-0.115-0.586-0.076-0.873-0.072-1.108 0.010-2.215 0.006-3.324-0.012-0.347 0.849-0.627 1.722-0.902 2.596l-2.339-0.002c1.222-3.834 2.678-7.619 3.996-11.422 0.872 0.019 1.75-0.001 2.622-0.005zM39.968 14.777c-0.484 1.375-0.934 2.769-1.464 4.125h1.682l1.306-0.015c-0.184-0.518-1.249-3.881-1.524-4.109zM89.695 11.963l2.196 0.013c-0.030 2.647-0.006 5.298-0.007 7.946 0 1.092 0.11 2.287-0.012 3.366l-0.121 0.083h-2.058l-0.005-4.889c-1.645-0.046-3.303-0.005-4.949-0.003v4.893l-2.209-0.004 0.009-11.401 2.201 0.005 0.001 4.662h4.957l-0.003-4.67zM93.212 15.123c0.729 0.021 1.459 0.013 2.189 0.018-0.010 1.166-0.194 4.384 0.089 5.348 0.11 0.38 0.333 0.728 0.692 0.913 0.542 0.278 1.091 0.117 1.629-0.072 0.237-0.265 0.443-0.515 0.561-0.858 0.385-1.123 0.18-4.007 0.173-5.344 0.695 0.019 1.391 0.004 2.085 0-0.016 0.801-0.003 1.604-0.004 2.405l0.010 5.833c-0.209 0.003-0.455 0.005-0.702 0.005-0.473 0-0.944-0.007-1.414-0.022l0.069 0.002-0.062-0.074c0.010-0.172 0.011-0.314-0.019-0.486-0.64 0.277-1.209 0.697-1.937 0.712-0.843 0.017-1.758-0.246-2.364-0.852-0.458-0.459-0.738-1.077-0.883-1.703-0.31-1.347-0.127-4.333-0.114-5.825zM63.693 14.894c1.089-0.086 2.224-0.008 3.104 0.725 0.616 0.514 0.816 1.13 0.883 1.898l-1.969-0.002c-0.114-0.211-0.227-0.454-0.404-0.619-0.264-0.235-0.615-0.378-0.998-0.378-0.028 0-0.057 0.001-0.084 0.002l0.004-0c-0.297 0.015-0.678 0.134-0.864 0.387-0.114 0.154-0.175 0.312-0.132 0.503 0.224 1.010 2.79 0.885 3.607 1.418 0.52 0.341 0.919 0.952 1.034 1.56 0.024 0.125 0.038 0.269 0.038 0.416 0 0.512-0.168 0.984-0.451 1.365l0.004-0.006c-0.627 0.864-1.593 1.175-2.598 1.33-0.931 0.056-2.011-0.194-2.756-0.761-0.699-0.533-0.95-1.185-1.045-2.026 0.663 0.001 1.326-0.005 1.989-0.019 0.038 0.125 0.082 0.246 0.145 0.361 0.289 0.533 0.865 0.65 1.4 0.808 0.353-0.082 0.831-0.171 1.081-0.457 0.152-0.171 0.204-0.471 0.14-0.691-0.245-0.843-2.703-0.943-3.556-1.467-0.505-0.312-0.875-0.764-1.011-1.349-0.121-0.53-0.075-1.125 0.223-1.59 0.538-0.84 1.28-1.185 2.216-1.408zM76.938 14.891c0.619-0.050 1.228-0.046 1.831 0.117 0.698 0.189 1.438 0.578 1.79 1.239 0.169 0.317 0.299 0.886 0.186 1.238-0.565 0.122-1.254 0.039-1.836 0.033-0.086-0.288-0.158-0.509-0.39-0.708-0.244-0.206-0.562-0.33-0.91-0.33-0.054 0-0.108 0.003-0.16 0.009l0.006-0.001c-0.299 0.031-0.684 0.179-0.852 0.447-0.1 0.16-0.14 0.324-0.077 0.508 0.361 1.069 2.535 0.816 3.38 1.298 0.538 0.307 0.988 0.848 1.141 1.454 0.048 0.18 0.075 0.387 0.075 0.6 0 0.495-0.147 0.955-0.401 1.339l0.006-0.009c-0.558 0.835-1.448 1.149-2.387 1.332-0.922 0.114-1.989-0.083-2.76-0.614-0.791-0.545-1.028-1.229-1.206-2.123l1.974-0.015c0.12 0.302 0.228 0.537 0.484 0.746 0.341 0.279 0.744 0.406 1.184 0.348 0.341-0.045 0.676-0.202 0.88-0.487 0.134-0.187 0.2-0.414 0.136-0.641-0.248-0.878-2.426-0.824-3.29-1.289-0.584-0.315-1.047-0.838-1.232-1.48-0.053-0.172-0.084-0.37-0.084-0.575 0-0.378 0.104-0.732 0.285-1.034l-0.005 0.009c0.477-0.809 1.352-1.205 2.23-1.408zM52.646 12.86c0.656 0.022 1.315 0.008 1.972 0.010-0.002 0.14-0.002 0.305-0.002 0.471 0 0.615 0.012 1.227 0.036 1.837l-0.003-0.088 1.945 0.001-0.005 1.695-1.851-0.001c0 1.066-0.244 3.818 0.247 4.642 0.382 0.3 1.146 0.188 1.609 0.183l-0.007 1.404c0.005 0.145 0.004 0.219-0.070 0.345-0.258 0.124-0.523 0.152-0.809 0.155-0.753 0.006-1.791-0.13-2.332-0.694-1.086-1.13-0.738-4.458-0.733-6.035l-1.255 0.002 0.004-1.699 1.249 0.009 0.007-2.236zM69.548 12.851l1.934 0.010c-0.014 0.741 0.017 1.487 0.031 2.227l1.975-0.004-0.003 1.703-1.858-0.002c0.022 1.015-0.227 3.851 0.233 4.618 0.493 0.295 1.113 0.217 1.668 0.215-0.006 0.489 0.003 0.98 0.005 1.469l-0.024 0.186c-0.191 0.202-0.485 0.194-0.746 0.2-0.795 0.019-1.892-0.106-2.467-0.709-1.076-1.125-0.741-4.406-0.732-5.979l-1.321 0.001c-0.018-0.564-0.010-1.128-0.016-1.693l1.317 0.007 0.004-2.248zM27.823 11.584c0.102-0.005 0.2-0.007 0.301 0.008 0.316 0.045 0.628 0.198 0.802 0.475 0.185 0.295 0.21 0.688 0.235 1.028 0.125 1.689 0.032 3.445 0.031 5.139 0 1.383 0.154 3.26-0.103 4.592-0.081 0.419-0.359 0.619-0.692 0.847-0.126 0.014-0.258 0.032-0.386 0.025-0.297-0.015-0.559-0.151-0.74-0.36l-0.001-0.001c-0.182-0.215-0.177-0.648-0.193-0.919-0.116-1.941-0.018-3.946-0.017-5.894 0.001-1.107-0.151-3.225 0.083-4.213 0.083-0.354 0.402-0.539 0.679-0.727zM50.248 15.060l0.278-0.003c0.329 0.369 0.165 1.535 0.155 2.018-0.696-0.007-1.353-0.035-1.9 0.471-1.022 0.949-0.678 4.426-0.688 5.822-0.549-0.006-1.617 0.195-2.036-0.155l-0.022-0.345c0.010-2.586-0.056-5.17-0.039-7.755 0.664 0.021 1.331 0.006 1.995 0.003l-0.024 1.142c0.124-0.177 0.246-0.367 0.389-0.528 0.503-0.568 1.185-0.619 1.891-0.67zM57.802 15.094l2.085 0.001 0.005 8.277-2.11-0.003 0.019-8.274zM24.909 14.296c0.343 0.062 0.645 0.191 0.846 0.488 0.308 0.459 0.316 4.955 0.162 5.598-0.085 0.351-0.388 0.521-0.676 0.692-0.33-0.021-0.763-0.050-0.983-0.336-0.327-0.425-0.299-5.203-0.114-5.803 0.108-0.348 0.466-0.496 0.765-0.64zM58.708 11.686c0.040-0.005 0.087-0.008 0.134-0.008 0.637 0 1.154 0.517 1.154 1.154 0 0.59-0.443 1.076-1.014 1.145l-0.006 0.001c-0.040 0.005-0.087 0.008-0.134 0.008-0.637 0-1.154-0.517-1.154-1.154 0-0.59 0.443-1.076 1.014-1.145l0.006-0.001z"></path>
    </symbol>
    <symbol id="icon-caret-arrow-artist-right" viewBox="0 0 32 32">
      <path d="M12.165 25.17l10.24-8.96-10.24-8.96v17.92z"></path>
    </symbol>
    <symbol id="icon-chevron-down-arrow" viewBox="0 0 32 32">
      <path d="M21.5 11.255l-5.495 5.495-5.495-5.495-1.81 1.81 7.305 7.305 7.305-7.305-1.81-1.81z"></path>
    </symbol>
    <symbol id="icon-chevron-up-arrow" viewBox="0 0 32 32">
      <path d="M8.394 19.064l1.886 1.886 5.726-5.726 5.726 5.726 1.886-1.886-7.612-7.612-7.612 7.612z"></path>
    </symbol>
    <symbol id="icon-error-circle" viewBox="0 0 32 32">
      <path d="M15.938 2.666c-7.317 0-13.27 5.982-13.27 13.334s5.982 13.334 13.334 13.334c7.352 0 13.333-5.982 13.333-13.334s-6.009-13.334-13.396-13.334zM16.001 26.666c-5.882 0-10.667-4.785-10.667-10.666s4.756-10.666 10.604-10.666c5.918 0 10.73 4.785 10.73 10.666s-4.786 10.666-10.666 10.666z"></path>
      <path d="M14.667 9.334h2.666v9.333h-2.666v-9.333zM14.667 20h2.666v2.666h-2.666v-2.666z"></path>
    </symbol>
    <symbol id="icon-facebook" viewBox="0 0 32 32">
      <path d="M28.805 16.511c0-7.113-5.731-12.879-12.8-12.879s-12.8 5.766-12.8 12.881c0 6.427 4.681 11.756 10.801 12.721v-8.998h-3.251v-3.724h3.251v-2.836c0-3.228 1.91-5.010 4.835-5.010 1.4 0 2.865 0.251 2.865 0.251v3.168h-1.613c-1.591 0-2.086 0.993-2.086 2.011v2.418h3.549l-0.567 3.722h-2.982v8.998c6.118-0.966 10.799-6.295 10.799-12.721z"></path>
    </symbol>
    <symbol id="icon-close" viewBox="0 0 32 32">
      <path d="M22.843 22.372l-0.471 0.471c-0.121 0.121-0.288 0.195-0.472 0.195s-0.351-0.075-0.472-0.195l-5.423-5.422-5.423 5.422c-0.121 0.121-0.287 0.195-0.472 0.195s-0.351-0.075-0.472-0.195l-0.471-0.471c-0.121-0.121-0.195-0.288-0.195-0.472s0.075-0.351 0.195-0.472l5.422-5.423-5.422-5.423c-0.121-0.121-0.195-0.287-0.195-0.472s0.075-0.351 0.195-0.472l0.471-0.471c0.26-0.26 0.683-0.26 0.943 0l5.423 5.422 5.423-5.422c0.26-0.26 0.683-0.26 0.943 0l0.471 0.471c0.26 0.26 0.26 0.683 0 0.943l-5.422 5.423 5.422 5.423c0.26 0.26 0.26 0.683 0 0.943z"></path>
    </symbol>
    <symbol id="icon-instagram" viewBox="0 0 30 32">
      <path d="M21.895 1.41h-13.474c-4.651 0-8.421 3.77-8.421 8.421v13.474c0 4.651 3.77 8.421 8.421 8.421h13.474c4.651 0 8.421-3.77 8.421-8.421v-13.474c0-4.651-3.77-8.421-8.421-8.421zM27.368 23.305c-0.009 3.019-2.455 5.464-5.474 5.474h-13.474c-3.019-0.009-5.464-2.455-5.474-5.474v-13.474c0.009-3.019 2.454-5.464 5.474-5.474h13.474c3.019 0.009 5.464 2.454 5.474 5.474v13.474zM23.158 10.252c-0.93 0-1.684-0.754-1.684-1.684s0.754-1.684 1.684-1.684c0.93 0 1.684 0.754 1.684 1.684s-0.754 1.684-1.684 1.684zM15.158 8.989c2.011-0.004 3.942 0.793 5.364 2.215s2.219 3.353 2.215 5.364c0 4.186-3.393 7.579-7.579 7.579s-7.579-3.393-7.579-7.579c0-4.186 3.393-7.579 7.579-7.579zM10.526 16.568c0 2.558 2.074 4.632 4.632 4.632s4.632-2.074 4.632-4.632c0-2.558-2.074-4.632-4.632-4.632s-4.632 2.074-4.632 4.632z"></path>
    </symbol>
    <symbol id="icon-left-arrow-alt" viewBox="0 0 32 32">
      <path d="M16.91 22.612l-5.495-5.495h12.27v-2.56h-12.27l5.495-5.495-1.81-1.81-8.585 8.585 8.585 8.585 1.81-1.81z"></path>
    </symbol>
    <symbol id="icon-menu-alt-right" viewBox="0 0 32 32">
      <path d="M5.335 8.003h21.341v2.668h-21.341v-2.668zM10.67 14.672h16.006v2.668h-16.006v-2.668zM17.34 21.341h9.337v2.668h-9.337v-2.668z"></path>
    </symbol>
    <symbol id="icon-right-arrow-hero" viewBox="0 0 32 32">
      <path d="M7.732 28.654c0.172 0.091 0.376 0.145 0.593 0.145 0.273 0 0.525-0.085 0.733-0.23l-0.004 0.003 16.64-11.52c0.335-0.234 0.551-0.618 0.551-1.052s-0.216-0.818-0.547-1.049l-0.004-0.003-16.64-11.52c-0.204-0.144-0.457-0.23-0.731-0.23-0.705 0-1.277 0.572-1.277 1.277 0 0.002 0 0.003 0 0.005v-0 23.040c0 0 0 0 0 0 0 0.49 0.275 0.915 0.679 1.131l0.007 0.003zM9.605 6.924l13.111 9.076-13.111 9.076v-18.153z"></path>
    </symbol>
    <symbol id="icon-right-arrow-alt" viewBox="0 0 32 32">
      <path d="M15.101 22.612l1.81 1.809 8.585-8.585-8.585-8.584-1.81 1.81 5.495 5.495h-12.27v2.56h12.27l-5.495 5.495z"></path>
    </symbol>
    <symbol id="icon-search" viewBox="0 0 32 32">
      <path d="M13.338 24.009c2.474-0.001 4.75-0.848 6.554-2.269l-0.023 0.017 5.863 5.863 1.886-1.886-5.863-5.863c1.404-1.781 2.252-4.058 2.253-6.533v-0c0-5.883-4.787-10.67-10.67-10.67s-10.67 4.787-10.67 10.67 4.787 10.67 10.67 10.67zM13.338 5.335c4.414 0 8.003 3.589 8.003 8.003s-3.589 8.003-8.003 8.003-8.003-3.589-8.003-8.003 3.589-8.003 8.003-8.003z"></path>
    </symbol>
    <symbol id="icon-logo-hero" viewBox="0 0 32 32">
      <path d="M17.284 3.195c0.38-0.041 0.82 0.038 1.185 0.142 0.828 0.235 1.5 0.738 1.899 1.455 0.239 0.413 0.38 0.908 0.38 1.437 0 0.34-0.058 0.667-0.166 0.97l0.006-0.020c-0.347 0.976-1.092 1.466-2.022 1.917l0.010 2.845c0.665 0.189 1.312 0.403 1.915 0.729 1.387 0.749 2.336 2.012 2.733 3.45 0.42 1.508 0.182 3.109-0.665 4.452-0.776 1.218-2.013 2.117-3.495 2.461-1.935 0.45-3.576-0.037-5.24-0.958-0.722 0.72-1.433 1.444-2.135 2.175l-0.044 0.046c0.321 0.704 0.427 1.444 0.214 2.192-0.208 0.732-0.758 1.359-1.462 1.729-0.789 0.416-1.688 0.492-2.553 0.262-0.858-0.229-1.579-0.725-1.999-1.469-0.413-0.732-0.448-1.589-0.18-2.371 0.304-0.888 0.924-1.435 1.797-1.841 0.939-0.342 1.715-0.23 2.631 0.078 0.762-0.748 1.481-1.534 2.252-2.275-0.847-1.548-1.122-2.866-0.681-4.572-0.959-0.417-1.883-0.903-2.843-1.321-0.513 0.497-1.139 0.838-1.875 0.954-0.878 0.138-1.803-0.085-2.524-0.565-0.715-0.483-1.185-1.218-1.301-2.033-0.119-0.791 0.105-1.662 0.648-2.286 0.561-0.644 1.43-1.031 2.309-1.117 0.863-0.078 1.724 0.167 2.392 0.681 0.855 0.667 1.101 1.496 1.205 2.484 0.909 0.52 1.952 0.921 2.899 1.384 1.233-1.358 2.134-1.786 3.931-2.303l0.002-2.824c-0.322-0.12-0.643-0.266-0.923-0.458-0.709-0.488-1.175-1.225-1.289-2.039-0.107-0.811 0.139-1.628 0.682-2.269 0.593-0.694 1.387-1.009 2.307-1.123zM21.246 17.242c-0.183-1.943-2.014-3.383-4.1-3.225-2.104 0.16-3.667 1.884-3.483 3.844s2.046 3.405 4.148 3.222c2.084-0.183 3.618-1.898 3.435-3.841zM27.276 12.524c0.089-0.004 0.175-0.005 0.264 0.007 0.277 0.038 0.549 0.162 0.702 0.388 0.162 0.24 0.184 0.56 0.206 0.838 0.11 1.377 0.028 2.809 0.028 4.191 0 1.128 0.134 2.658-0.091 3.744-0.071 0.342-0.314 0.505-0.604 0.69-0.111 0.013-0.227 0.027-0.339 0.021-0.25-0.013-0.486-0.117-0.648-0.294-0.16-0.176-0.155-0.529-0.169-0.749-0.102-1.583-0.016-3.218-0.014-4.806 0.001-0.902-0.132-2.63 0.071-3.436 0.073-0.288 0.352-0.439 0.595-0.593zM24.727 14.736c0.299 0.052 0.565 0.157 0.74 0.399 0.269 0.375 0.277 4.041 0.142 4.564-0.074 0.286-0.34 0.426-0.591 0.563-0.288-0.016-0.668-0.040-0.86-0.273-0.287-0.346-0.263-4.243-0.1-4.732 0.095-0.284 0.408-0.404 0.67-0.521z"></path>
    </symbol>
    <symbol id="star-filled" viewBox="0 0 20 19">
      <path fill="currentColor" d="M9.07.612c.345-.816 1.515-.816 1.86 0l2.028 4.82c.145.343.473.579.849.608l5.266.417c.892.071 1.254 1.171.574 1.746L15.635 11.6a.987.987 0 0 0-.324.985l1.225 5.077c.208.86-.74 1.54-1.503 1.08l-4.508-2.721a1.016 1.016 0 0 0-1.05 0l-4.508 2.72c-.764.461-1.711-.219-1.503-1.079l1.225-5.077a.987.987 0 0 0-.324-.985L.353 8.203c-.68-.575-.318-1.675.574-1.746l5.266-.417c.377-.03.704-.265.85-.609L9.07.612Z"/>
    </symbol>
    <symbol id="icon-down-arrow-alt" viewBox="0 0 31 32">
      <path d="M23.945 17.282l-1.81-1.81-5.495 5.495v-12.27h-2.56v12.27l-5.495-5.495-1.81 1.81 8.585 8.585 8.585-8.585z"></path>
    </symbol>
    <symbol id="icon-you-tube" viewBox="0 0 32 32">
      <path d="M28.791 9.604c-0.152-0.563-0.449-1.077-0.861-1.49s-0.925-0.711-1.489-0.864c-2.088-0.573-10.441-0.583-10.441-0.583s-8.352-0.009-10.441 0.539c-0.563 0.16-1.075 0.462-1.487 0.878s-0.711 0.929-0.867 1.493c-0.551 2.088-0.556 6.419-0.556 6.419s-0.005 4.352 0.541 6.419c0.307 1.143 1.207 2.045 2.351 2.353 2.109 0.573 10.44 0.583 10.44 0.583s8.353 0.009 10.441-0.537c0.563-0.153 1.077-0.45 1.49-0.862s0.712-0.925 0.866-1.488c0.552-2.087 0.556-6.416 0.556-6.416s0.027-4.353-0.543-6.441zM13.328 20.007l0.007-8 6.943 4.007-6.949 3.993z"></path>
    </symbol>
    <symbol id="icon-scroll-up" viewBox="0 0 32 32">
      <path d="M8.391 15.057l1.885 1.885 5.724-5.724 5.724 5.724 1.885-1.885-7.609-7.609-7.609 7.609z"></path>
      <path d="M8.391 21.724l1.885 1.885 5.724-5.724 5.724 5.724 1.885-1.885-7.609-7.609-7.609 7.609z"></path>
    </symbol>
  </defs>
</svg>