<svg xmlns="http://www.w3.org/2000/svg" width="31" height="41" fill="none">
  <path fill="#fff" d="M21.187.184c.56-.064 1.21.06 1.75.225 1.22.372 2.212 1.168 2.801 2.306a4.902 4.902 0 0 1 .325 3.78c-.512 1.546-1.61 2.323-2.983 3.037l.015 4.507c.981.299 1.935.637 2.826 1.153 2.046 1.187 3.447 3.188 4.034 5.464a9.307 9.307 0 0 1-.982 7.052c-1.145 1.928-2.97 3.353-5.157 3.898-2.856.714-5.278-.06-7.732-1.518a204.323 204.323 0 0 0-3.215 3.518c.473 1.116.629 2.287.315 3.473-.306 1.159-1.118 2.152-2.157 2.74-1.164.658-2.49.777-3.767.412-1.266-.362-2.332-1.146-2.95-2.325-.61-1.16-.661-2.518-.266-3.756.45-1.406 1.365-2.273 2.652-2.916 1.385-.542 2.53-.363 3.882.124 1.126-1.185 2.186-2.43 3.323-3.603-1.25-2.452-1.655-4.54-1.005-7.242-1.415-.66-2.78-1.43-4.195-2.091-.757.787-1.682 1.328-2.769 1.51-1.295.218-2.66-.135-3.725-.895a4.743 4.743 0 0 1-1.92-3.22c-.174-1.253.156-2.633.958-3.621.827-1.02 2.11-1.635 3.406-1.77a4.81 4.81 0 0 1 3.53 1.079c1.262 1.056 1.626 2.37 1.779 3.934 1.342.823 2.879 1.457 4.277 2.192 1.82-2.152 3.15-2.83 5.802-3.647l.002-4.473c-.475-.19-.949-.421-1.363-.725a4.796 4.796 0 0 1-1.903-3.23 4.85 4.85 0 0 1 1.007-3.593c.876-1.1 2.047-1.599 3.405-1.779Zm5.849 22.248a5.617 5.617 0 1 0-11.19.982 5.617 5.617 0 0 0 11.19-.982Z"/>
</svg>
